<?xml version="1.0" encoding="utf-8"?>
<!-- Svg Vector Icons : http://www.onlinewebfonts.com/icon -->
<!DOCTYPE svg PUBLIC "-//W3C//DTD SVG 1.1//EN" "http://www.w3.org/Graphics/SVG/1.1/DTD/svg11.dtd">
<svg version="1.1" xmlns="http://www.w3.org/2000/svg" xmlns:xlink="http://www.w3.org/1999/xlink" x="0px" y="0px" viewBox="0 0 1000 1000" enable-background="new 0 0 1000 1000" xml:space="preserve">
<metadata> Svg Vector Icons : http://www.onlinewebfonts.com/icon </metadata>
<g><g transform="translate(0.000000,511.000000) scale(0.100000,-0.100000)"><path d="M210.4,4985.8c-28.7-15.5-66.2-53-81.7-81.7C106.6,4860,100,4186.5,100,1728.9c0-3369.5-4.4-3248.1,114.8-3283.4c26.5-11,733.1-17.7,1567.7-17.7h1519.2v-1492.7c0-987,8.8-1521.3,24.3-1576.6c44.2-156.8-178.9-147.9,3276.8-147.9c3382.8,0,3230.4-6.6,3279,121.4c15.5,39.7,19.9,1141.6,17.7,3215l-6.6,3153.1l-50.8,50.8l-50.8,50.8l-1543.5,6.6l-1545.7,4.4l-4.4,1545.7l-6.6,1543.4l-50.8,50.8l-50.8,50.8l-3162,4.4C919.2,5012.3,254.6,5007.9,210.4,4985.8z M1711.9,4632.5c0-2.2-278.2-282.6-618.3-622.7l-618.3-618.3v624.9v622.7h618.3C1433.7,4639.1,1711.9,4636.9,1711.9,4632.5z M2142.5,2983.1L486.4,1327l-6.6,766.2l-4.4,768.4l887.7,887.7l889.8,889.8h772.8h772.8L2142.5,2983.1z M3279.6,1845.9L486.4-947.3l-6.6,865.6L475.4,786l1925.4,1925.4l1927.7,1927.6h872.2h872.2L3279.6,1845.9z M5913.9,2227.9l-415.1-415.1h-872.2h-872.2l1280.7,1280.7l1280.7,1280.7l6.6-865.6l4.4-867.8L5913.9,2227.9z M6326.8,1956.3v-143.5h-147.9h-147.9l141.3,143.5c77.3,79.5,145.7,143.5,147.9,143.5C6324.6,2099.9,6326.8,2035.8,6326.8,1956.3z M6326.8,112.6v-1324.8H5001.9H3677.1V112.6v1324.8h1324.8h1324.8V112.6z M6989.2,1430.8c0-2.2-64-70.7-143.5-147.9l-143.5-141.3v147.9v147.9h143.5C6925.2,1437.4,6989.2,1435.2,6989.2,1430.8z M7993.9,156.7L6713.2-1123.9l-6.6,865.6l-4.4,867.8l412.9,412.9l415.1,415.1h872.2h872.2L7993.9,156.7z M2888.8-797.1l-415.1-415.1h-872.2H729.3L2010,68.4l1280.7,1280.7l6.6-865.6l4.4-867.8L2888.8-797.1z M7603.1-2486.3L5675.4-4414h-872.2H3931l2793.2,2793.2l2793.2,2793.2l6.6-865.6l4.4-867.8L7603.1-2486.3z M3301.7-1068.7v-143.5h-147.9h-147.9l141.3,143.5c77.3,79.5,145.7,143.5,147.9,143.5C3299.5-925.2,3301.7-989.3,3301.7-1068.7z M8640.9-3524.1L7751-4414h-772.8h-772.8l1656.1,1656.1l1656.1,1656.1l6.6-766.2l4.4-768.4L8640.9-3524.1z M3915.6-1583.2c46.4-15.5,39.8-24.3-94.9-159l-143.5-141.3v143.5c0,79.5,6.6,152.4,15.5,159C3710.2-1563.3,3847.1-1565.6,3915.6-1583.2z M6238.5-1585.4c0-6.6-576.3-589.6-1280.7-1293.9L3677.1-4160v872.2v874.4l426.2,421.8l424,421.7l856.7-2.2C5854.3-1572.2,6238.5-1578.8,6238.5-1585.4z M9528.5-3795.7V-4414h-622.7h-624.9l618.3,618.3c340.1,340.1,620.5,618.3,622.7,618.3C9526.3-3177.5,9528.5-3455.7,9528.5-3795.7z"/></g></g>
</svg>